<svg xmlns="http://www.w3.org/2000/svg" width="24" height="18" viewBox="0 0 24 18" fill="none">
<rect width="24" height="18" rx="3" fill="#3AB770"/>
<path fill-rule="evenodd" clip-rule="evenodd" d="M18.286 11.9998V10.7998H5.71455L8.00026 11.9998H14.8574C14.8574 12.6622 15.6254 13.1998 16.5717 13.1998C17.518 13.1998 18.286 12.6622 18.286 11.9998ZM9.9774 4.68701C9.96369 4.68701 9.94312 4.69421 9.91683 4.71101C9.85512 4.75421 9.73397 4.88741 9.7294 5.04101C9.72597 5.12861 9.70997 5.12861 9.76369 5.18501C9.80255 5.24261 9.84369 5.23781 9.9214 5.19341C9.96712 5.15741 9.98197 5.13701 9.99797 5.07821C10.0163 4.98221 9.89854 5.12621 9.88369 5.01581C9.8574 4.91501 9.93283 4.87181 10.0037 4.77581C10.006 4.72781 10.006 4.69181 9.9774 4.68941V4.68701ZM11.1237 4.69301C11.1008 4.69781 11.0745 4.72901 11.0368 4.79861C11.0105 4.87301 10.8951 4.98581 10.9797 5.21861C11.046 5.36621 11.0745 5.60501 11.0437 5.87261C10.9957 5.94821 10.9865 5.97461 10.9237 6.05021C10.8368 6.14981 10.7408 6.12461 10.67 6.08621C10.6014 6.03821 10.5488 6.01421 10.518 5.86301C10.5237 5.62301 10.5374 5.22461 10.4951 5.14061C10.4334 5.01101 10.3305 5.05661 10.2871 5.09621C10.078 5.30021 9.97397 5.63981 9.90997 5.91221C9.85283 6.10901 9.78997 6.05141 9.74654 5.97221C9.64026 5.86661 9.63226 5.04821 9.50426 5.18381C9.29854 5.80061 9.62197 6.47621 9.84712 6.41021C10.0071 6.48221 10.11 6.15821 10.1763 5.80421C10.222 5.70461 10.2563 5.69261 10.2791 5.74421C10.2734 6.21461 10.3134 6.32021 10.4277 6.46181C10.6837 6.67061 10.8963 6.48821 10.9134 6.47141L11.1134 6.26261C11.1591 6.21461 11.2163 6.20981 11.2791 6.25301C11.3408 6.31301 11.3328 6.41261 11.462 6.48101C11.574 6.52901 11.8083 6.49301 11.862 6.39341C11.9363 6.26141 11.9534 6.21581 11.9877 6.16541C12.0403 6.09341 12.1305 6.12581 12.1305 6.14861C12.1225 6.19061 12.07 6.23261 12.1054 6.30461C12.1683 6.35261 12.1831 6.32141 12.2197 6.31061C12.35 6.24581 12.4483 5.94821 12.4483 5.94821C12.454 5.83781 12.3945 5.84621 12.3568 5.86901C12.3054 5.90141 12.3031 5.91221 12.254 5.94461C12.1888 5.95421 12.0654 5.99861 12.0048 5.89901C11.942 5.77901 11.942 5.61341 11.894 5.49101C11.894 5.48381 11.8105 5.30261 11.8871 5.29181C11.9248 5.29901 12.0094 5.32181 12.022 5.24861C12.0631 5.17661 11.934 4.97261 11.846 4.87181C11.7705 4.78421 11.6654 4.77341 11.5637 4.86221C11.4917 4.93181 11.5031 5.00861 11.4883 5.08181C11.4711 5.16581 11.4745 5.27021 11.5568 5.38181C11.6277 5.52821 11.7568 5.71781 11.7134 5.98421C11.7134 5.98421 11.6391 6.11141 11.5077 6.09461C11.4505 6.08261 11.3614 6.05861 11.3134 5.68661C11.2791 5.40701 11.3225 5.01461 11.2105 4.83101C11.1843 4.76261 11.1625 4.69541 11.126 4.69901L11.1237 4.69301ZM10.7603 4.72421C10.726 4.72781 10.6883 4.76981 10.6574 4.85021C10.6311 4.91261 10.598 5.23421 10.6037 5.23421C10.5808 5.33021 10.6985 5.37101 10.7523 5.24861C10.8323 5.02061 10.8323 4.92461 10.8368 4.83101C10.8254 4.75901 10.7945 4.72301 10.7603 4.72541V4.72421ZM12.1008 4.74821C12.0665 4.75301 12.038 4.77461 12.0277 4.82981C12.0128 4.95701 12.0208 5.02781 12.0414 5.13461C12.0563 5.20661 12.1557 5.32421 12.2037 5.39381C12.4357 5.72141 12.6608 6.05021 12.8757 6.38981C12.91 6.64421 12.9328 6.89141 12.95 7.13861C12.9865 7.67861 12.9957 8.35061 12.9648 8.92061C13.0608 8.92421 13.2163 8.75621 13.27 8.51261C13.3043 8.17181 13.2585 7.48061 13.254 7.27901L13.2425 6.99341C13.494 7.42541 13.7363 7.88141 13.974 8.38061C14.062 8.33741 14.0425 7.82261 13.9923 7.75061C13.8003 7.31861 13.5351 6.89141 13.4517 6.72701C13.4208 6.66701 13.3168 6.50261 13.1945 6.31181C13.1717 6.03821 13.1465 5.80781 13.1305 5.73821C13.0905 5.45021 13.2425 5.77061 13.222 5.60381C13.1717 5.31581 13.0208 5.12141 12.8425 4.85741C12.7854 4.77341 12.7854 4.75421 12.6974 4.87901C12.646 5.00501 12.646 5.11061 12.6631 5.20901C12.638 5.17301 12.6094 5.13221 12.5683 5.07941L12.2768 4.82021C12.2368 4.79021 12.1591 4.74461 12.1008 4.74821ZM16.0734 4.79261C16.0563 4.79021 16.0391 4.79861 16.0163 4.83101C15.9763 4.86701 15.934 4.93541 15.9363 5.02301C15.9443 5.17301 15.9705 5.32781 15.9797 5.47901L15.9911 5.53901C15.9751 5.51981 15.9614 5.50301 15.9534 5.49581C15.6711 5.18381 16.0825 5.44301 15.8985 5.20421C15.7443 5.02421 15.6985 4.96901 15.5671 4.86101C15.4985 4.81781 15.4597 4.73141 15.438 4.87781C15.4288 5.00621 15.4197 5.15621 15.4265 5.26421C15.4265 5.32421 15.4871 5.43821 15.5385 5.50421C15.726 5.74781 15.918 6.00581 16.11 6.27461C16.1511 6.82301 16.1614 7.32581 16.2014 7.87541C16.1968 8.11061 16.1283 8.42261 16.0643 8.45141C16.0643 8.45141 15.9637 8.51141 15.8974 8.44541C15.8483 8.42501 15.6551 8.10581 15.6551 8.10581C15.5557 8.00981 15.4894 8.03741 15.4197 8.10581C15.2254 8.30261 15.1363 8.67221 15.0048 8.92661C14.9705 8.98301 14.8757 9.03221 14.7694 8.92181C14.4985 8.53301 14.6551 7.97981 14.6231 8.12261C14.3831 8.40821 14.4883 8.88101 14.5431 8.98301C14.6231 9.15101 14.6871 9.25901 14.8403 9.33941C14.9831 9.44741 15.0917 9.38141 15.1534 9.30341C15.2951 9.14981 15.2974 8.75501 15.3637 8.67701C15.4094 8.53301 15.5271 8.55701 15.5843 8.62181C15.6414 8.70581 15.7054 8.75981 15.7865 8.80541C15.9191 8.92781 16.0768 8.94941 16.2323 8.83781C16.3385 8.77541 16.4083 8.69381 16.47 8.53301C16.5385 8.34581 16.5043 7.36181 16.4894 6.81461L16.7865 7.26581C16.8277 7.74581 16.8471 8.21981 16.8323 8.67341C16.8231 8.76341 17.1328 8.40461 17.1294 8.23421C17.1294 8.08661 17.1317 7.95101 17.1294 7.82621C17.2814 8.07821 17.4265 8.33381 17.5637 8.59421C17.6494 8.54621 17.6208 8.03861 17.5671 7.97021C17.4231 7.71581 17.238 7.44221 17.0951 7.22861C17.0665 6.96101 17.0288 6.64541 17.0105 6.54821C16.9843 6.39701 16.9568 6.17021 16.9157 5.99141C16.9043 5.92301 16.87 5.69981 16.8814 5.67941C16.8974 5.62781 16.9614 5.67941 16.9923 5.62181C17.038 5.56781 16.83 4.99781 16.7237 4.83701C16.686 4.76501 16.6163 4.78901 16.5317 4.90901C16.4517 4.98581 16.4814 5.16341 16.5111 5.33261C16.5888 5.76461 16.6597 6.20141 16.7145 6.64061C16.6117 6.47861 16.486 6.28421 16.3625 6.09821L16.3465 6.01421C16.3465 6.00461 16.3305 5.66021 16.3157 5.57861C16.3123 5.54501 16.3043 5.53541 16.3385 5.54021C16.3728 5.57141 16.3774 5.57261 16.3991 5.58341C16.4357 5.58821 16.4677 5.52581 16.4448 5.46701L16.1134 4.82621C16.102 4.81061 16.086 4.79621 16.0677 4.79381L16.0734 4.79261ZM5.82197 4.80461C5.75912 4.80221 5.69283 4.84061 5.71912 4.91861C5.70312 4.96061 5.83797 5.10221 5.86197 5.18021C5.8814 5.23661 5.83912 5.41421 5.88483 5.43221C5.92483 5.45021 5.98083 5.30741 6.0014 5.17661C6.01283 5.10461 6.00483 4.85741 5.84483 4.80701C5.83683 4.80461 5.82883 4.80461 5.81969 4.80341L5.82197 4.80461ZM17.502 4.80461C17.4871 4.80701 17.47 4.82861 17.4448 4.88861C17.382 4.99661 17.3603 5.18861 17.3854 5.35661C17.534 6.42461 17.6483 7.45901 17.6711 8.40461C17.6574 8.49581 17.6528 8.54381 17.614 8.65661C17.5248 8.77661 17.4265 8.92541 17.334 8.99741C17.2425 9.06941 17.046 9.13901 16.982 9.19181C16.7763 9.31421 16.7763 9.45581 16.9408 9.46181C17.2243 9.42581 17.5603 9.40181 17.7911 9.03581C17.8528 8.93381 17.926 8.65541 17.9283 8.48381C17.9511 7.48781 17.9168 6.50981 17.774 5.78861C17.7648 5.71661 17.7351 5.55701 17.7465 5.53661C17.7637 5.48621 17.8563 5.54021 17.8894 5.48381C17.9385 5.43101 17.6494 5.04341 17.5488 4.87781C17.5283 4.83701 17.5145 4.80221 17.4985 4.80581L17.502 4.80461ZM14.5271 4.82141C14.5157 4.82381 14.4997 4.84301 14.4677 4.88741C14.3877 5.15861 14.3603 5.37941 14.3911 5.54981C14.5968 6.66581 14.8025 7.67981 14.7705 8.74181C14.8665 8.74181 14.9785 8.51021 15.0265 8.27981C15.0528 7.96181 15.0083 7.76861 15.0014 7.58381C14.9934 7.39661 14.8003 5.88461 14.7614 5.74421C14.7134 5.47781 14.9488 5.70821 14.9237 5.55461C14.8414 5.35781 14.638 5.07461 14.5763 4.90301C14.5534 4.85741 14.5488 4.81541 14.5305 4.81901L14.5271 4.82141ZM7.28826 4.84301C7.2654 4.84781 7.23912 4.86941 7.23112 4.90301C7.2254 4.92701 7.24026 4.96661 7.21969 4.97861C7.20826 4.99061 7.16483 4.98221 7.16712 4.91861C7.16712 4.89701 7.15226 4.87541 7.14426 4.86221C7.13512 4.85741 7.1294 4.85621 7.1134 4.85621C7.09397 4.85621 7.09397 4.86221 7.08369 4.88021C7.07912 4.89701 7.07226 4.91381 7.07226 4.93301C7.06997 4.95701 7.06083 4.96301 7.04597 4.96661C7.02769 4.96661 7.03112 4.96901 7.0174 4.95821C7.00597 4.94981 6.99683 4.94621 6.99683 4.92941C6.99683 4.91141 6.99226 4.88141 6.98769 4.87181C6.97969 4.85981 6.96712 4.85501 6.9534 4.85141C6.87797 4.85141 6.8734 4.94501 6.87683 4.97861C6.87112 4.98581 6.86883 5.14661 6.97169 5.19221C7.10883 5.26181 7.3694 5.23181 7.36026 4.99781C7.36026 4.97741 7.35455 4.90781 7.35226 4.88981C7.33855 4.85381 7.31226 4.84181 7.28712 4.84541L7.28826 4.84301ZM9.14655 4.84541C9.09855 4.84781 9.05512 4.86221 9.02083 4.88141C8.9294 4.97381 8.90654 5.12141 8.97969 5.21381C9.04826 5.24981 9.12026 5.32181 9.0734 5.36381C8.87455 5.58581 8.35683 5.95901 8.33054 6.02741V6.03461H8.33512V6.03701C8.3614 6.05501 8.68597 6.05501 8.7214 6.03701H8.72369C8.83569 5.99261 9.36369 5.35901 9.36369 5.35901C9.33626 5.33501 9.31112 5.31581 9.28369 5.29061C9.25397 5.26421 9.2574 5.23781 9.28369 5.21141C9.41397 5.13221 9.37283 4.95581 9.30426 4.87541C9.24712 4.84901 9.19455 4.83941 9.14655 4.84301V4.84541ZM14.0037 4.84541C13.99 4.84901 13.9728 4.86941 13.9465 4.92941C13.8837 5.03741 13.8414 5.22341 13.8471 5.39741C13.982 6.38141 14.0231 7.24181 14.1123 8.22581C14.1191 8.32181 14.1054 8.45861 14.046 8.51381C13.822 8.75861 13.5008 9.05861 13.1511 9.19781C13.1134 9.24221 13.2448 9.43061 13.414 9.43061C13.6974 9.39461 13.9465 9.22901 14.1797 8.78861C14.2403 8.68661 14.3488 8.46701 14.3511 8.29661C14.374 7.29821 14.3054 6.52061 14.1614 5.80061C14.1534 5.72861 14.1591 5.64461 14.1705 5.62541C14.1888 5.60141 14.2505 5.62541 14.2848 5.56901C14.3328 5.51621 14.1545 5.08541 14.054 4.92101C14.0334 4.87901 14.022 4.84541 14.0037 4.84661V4.84541ZM6.47912 4.87781C6.44026 4.88261 6.40369 4.91381 6.3854 4.96181C6.37969 5.11781 6.37855 5.27381 6.39683 5.42021C6.4654 5.67581 6.48483 5.90021 6.51797 6.16061C6.5294 6.51101 6.32597 6.31181 6.33512 6.13901C6.38083 5.91341 6.3694 5.55941 6.32826 5.46941C6.29397 5.37941 6.2574 5.35781 6.1774 5.37341C6.11455 5.36861 5.95112 5.55341 5.9054 5.86541C5.9054 5.86541 5.86654 6.02381 5.85054 6.16541C5.82769 6.32501 5.72712 6.43901 5.65626 6.14381C5.59569 5.92781 5.55912 5.39981 5.4574 5.52221C5.42769 5.93501 5.3934 6.66221 5.72712 6.73661C6.13169 6.77741 5.90769 6.01901 6.05397 5.88101C6.08254 5.81501 6.13397 5.81381 6.1374 5.89901V6.54341C6.13283 6.75221 6.26312 6.81461 6.36597 6.85781C6.47226 6.84941 6.54197 6.85301 6.58312 6.96101L6.63454 8.07701C6.63454 8.07701 6.87912 8.14901 6.89054 7.44941C6.90197 7.03781 6.81055 6.69341 6.86426 6.61301C6.86655 6.53381 6.96255 6.52901 7.02883 6.56861C7.13512 6.64661 7.18197 6.74261 7.34654 6.70421C7.59797 6.63221 7.74655 6.50501 7.74997 6.30341C7.73855 6.11141 7.71569 5.91941 7.63569 5.72741C7.64712 5.69381 7.58997 5.60381 7.6014 5.56901C7.64483 5.64101 7.7134 5.63621 7.72712 5.56901C7.68597 5.42141 7.61969 5.28101 7.51226 5.22101C7.42426 5.13701 7.29512 5.15501 7.24712 5.32541C7.22426 5.52221 7.31569 5.75501 7.45283 5.94581C7.48026 6.02021 7.5214 6.14381 7.50312 6.25541C7.43112 6.29861 7.35912 6.27941 7.2974 6.21341C7.2974 6.21341 7.09969 6.05741 7.09969 6.02141C7.1534 5.66741 7.11112 5.62541 7.08255 5.52941C7.06197 5.39261 7.00026 5.34941 6.95112 5.25581C6.90083 5.19941 6.8334 5.19941 6.80255 5.25581C6.7134 5.41541 6.75455 5.75981 6.81855 5.91221C6.86426 6.05381 6.93512 6.14261 6.90197 6.14261C6.87455 6.22061 6.8174 6.20261 6.77626 6.11021C6.71912 5.91821 6.7054 5.63501 6.7054 5.50661C6.68826 5.34821 6.66883 5.00861 6.56826 4.92221C6.54197 4.88381 6.51112 4.87061 6.48026 4.87421L6.47912 4.87781ZM7.89854 4.87781C7.87912 4.88261 7.85626 4.89461 7.82997 4.90181C7.74426 4.92941 7.66426 5.00741 7.6894 5.15861C7.79226 5.80661 7.8574 6.30221 7.95912 6.95021C7.97397 7.02701 7.9134 7.12661 7.83569 7.11821C7.70312 7.02221 7.66997 6.83021 7.44369 6.83981C7.27912 6.83981 7.09169 7.02941 7.06883 7.20941C7.0414 7.35341 7.03226 7.50941 7.06883 7.63421C7.18312 7.77821 7.32255 7.76381 7.44369 7.73021C7.54312 7.68821 7.62654 7.58621 7.66083 7.61021C7.68369 7.64981 7.65855 7.98701 7.19226 8.24621C6.90426 8.38301 6.67569 8.41421 6.55226 8.16941C6.47683 8.01581 6.55912 7.43021 6.37169 7.56461C5.81626 9.06701 7.67112 9.27581 7.87797 7.62701C7.89169 7.57901 7.93169 7.53341 7.9614 7.54541C7.97283 7.55141 7.98426 7.56941 7.98883 7.60301C7.9454 9.09581 6.5534 9.19901 6.31797 8.72861C6.25854 8.61821 6.2414 8.37101 6.23569 8.22461C6.22426 8.13461 6.20369 8.08301 6.17855 8.06261C6.1214 8.01821 6.04597 8.13461 6.02997 8.33501C6.00712 8.49701 6.01283 8.54141 6.01283 8.69741C6.08826 9.87701 7.87912 9.36941 8.17055 8.39741C8.31455 7.89341 8.16712 7.51301 8.21626 7.46621L8.21969 7.46381H8.22312L8.22883 7.46141C8.40712 7.66301 8.65626 7.48541 8.71112 7.41701C8.73397 7.38101 8.7934 7.35701 8.83454 7.40501C8.97169 7.50821 9.21626 7.45901 9.26654 7.27301C9.29626 7.09301 9.3214 6.90821 9.32712 6.71501C9.23569 6.74501 9.16255 6.76661 9.13283 6.79901C9.12597 6.80741 9.1214 6.81701 9.11912 6.82661L9.09626 6.98621C9.09626 6.99221 9.09397 6.99581 9.09169 6.99821C9.08826 7.00661 9.08026 7.01261 9.07569 7.01621C9.04369 7.03421 8.98769 7.02461 8.98426 6.97541C8.94197 6.77141 8.76483 6.74501 8.6574 7.06301C8.5854 7.12301 8.45169 7.13501 8.44026 7.04381C8.4574 6.83021 8.37512 6.80141 8.21169 6.90221L8.05397 5.65421C8.12254 5.65061 8.18426 5.70221 8.24826 5.62061C8.17969 5.39981 8.03683 4.95101 7.95569 4.90781H7.9534L7.94197 4.89581C7.94197 4.89341 7.93854 4.89221 7.93626 4.89101L7.93169 4.88381C7.92712 4.88381 7.92254 4.88141 7.92026 4.88021C7.91226 4.87781 7.9054 4.87781 7.8974 4.87781H7.89854ZM13.4323 4.88261C13.3614 4.88021 13.2837 4.92701 13.3134 5.02061C13.2951 5.07221 13.4654 5.24501 13.4928 5.33861C13.542 5.48261 13.4551 5.62301 13.5065 5.64341C13.5545 5.66501 13.6208 5.49341 13.6437 5.33381C13.6734 5.20421 13.5865 4.94021 13.4608 4.88621L13.4323 4.88381V4.88261ZM9.12026 5.03981C9.15226 5.03741 9.19112 5.06861 9.21169 5.11181C9.23112 5.15981 9.22083 5.20421 9.18883 5.21261C9.15454 5.22101 9.11112 5.19101 9.09054 5.14301C9.06997 5.09501 9.07912 5.05061 9.1134 5.04221H9.12026V5.03981ZM17.1168 5.25821C17.0517 5.25581 16.9797 5.30621 17.0094 5.40821C16.9934 5.46341 17.1465 5.65061 17.1728 5.75381C17.1957 5.82581 17.1385 6.06101 17.1843 6.08261C17.2277 6.10661 17.2871 5.91941 17.31 5.74661C17.3237 5.65061 17.2574 5.32061 17.1443 5.26181C17.1363 5.25941 17.1271 5.25701 17.118 5.25701L17.1168 5.25821ZM12.694 5.37341C12.702 5.40101 12.7077 5.42861 12.7111 5.45741C12.7248 5.51741 12.7363 5.57741 12.7477 5.63981C12.6974 5.56541 12.6563 5.50541 12.6368 5.48381C12.5225 5.33981 12.6391 5.39021 12.694 5.37341ZM13.7145 5.89901C13.6894 5.90381 13.6654 5.92661 13.6574 5.96261C13.6505 5.98421 13.6665 6.02261 13.646 6.03461C13.6345 6.04661 13.5888 6.03941 13.5923 5.97461C13.5923 5.95301 13.5774 5.93021 13.5694 5.91821C13.5603 5.91221 13.5545 5.90981 13.5385 5.90981C13.5191 5.90981 13.5191 5.91581 13.5088 5.93381C13.5043 5.95061 13.4974 5.96741 13.4974 5.98781C13.4974 6.01181 13.4883 6.01901 13.4723 6.02381C13.454 6.02381 13.4574 6.02381 13.4425 6.01541C13.4334 6.00341 13.4231 6.00101 13.4231 5.98421C13.4231 5.96621 13.4197 5.93861 13.414 5.92661C13.406 5.91461 13.3945 5.91101 13.3797 5.90621C13.3054 5.90621 13.2997 5.99741 13.3043 6.03101C13.2997 6.03821 13.2963 6.20141 13.3991 6.24701C13.5385 6.31541 13.7991 6.28301 13.7877 6.05021C13.7877 6.02981 13.782 5.96021 13.7808 5.94221C13.766 5.90621 13.7397 5.89421 13.7157 5.89781L13.7145 5.89901ZM9.06312 5.94701C9.04712 5.94701 9.02426 5.95181 8.99797 5.96861C8.87569 6.03821 8.82883 6.24461 8.90655 6.36461C8.97512 6.47261 9.0894 6.43301 9.10426 6.43301C9.22426 6.44981 9.29512 6.19781 9.29512 6.19781C9.29512 6.19781 9.29854 6.12581 9.15797 6.26021C9.09626 6.27221 9.0894 6.24821 9.0734 6.21221C9.05969 6.14861 9.06197 6.08021 9.09054 6.01661C9.10426 5.97701 9.09054 5.95181 9.06312 5.94941V5.94701ZM15.638 5.97941C15.5694 5.97581 15.4974 6.02261 15.478 6.11981C15.478 6.17741 15.5031 6.20861 15.4985 6.26141C15.4928 6.29141 15.4643 6.30941 15.3934 6.27581C15.4048 6.26381 15.3477 6.18221 15.3477 6.18221C15.294 6.14621 15.222 6.18221 15.174 6.21581C15.1477 6.26621 15.1283 6.35141 15.158 6.43781C15.2357 6.59021 15.5043 6.84941 15.6323 6.85181C15.6345 6.71501 15.6471 6.53261 15.6551 6.41981C15.6574 6.37661 15.6665 6.32981 15.7065 6.31901C15.7454 6.30701 15.8128 6.35981 15.8128 6.31541C15.806 6.22901 15.79 6.09941 15.7443 6.03941C15.7191 6.00341 15.6791 5.98181 15.6391 5.97941H15.638ZM10.1945 6.45581L10.1911 6.45941C10.1911 6.45941 10.1888 6.45941 10.1877 6.46181C10.174 6.47381 10.158 6.49781 10.1225 6.52181C10.062 6.59381 10.0517 6.64541 10.054 6.78941C10.0585 6.80501 10.1683 7.12901 10.2631 7.35581C10.3271 7.59221 10.3854 7.86341 10.3431 8.11901C10.1945 8.45741 9.8974 8.76101 9.60826 8.92661C9.45969 8.97461 9.33397 8.95781 9.29969 8.92421C9.21512 8.86421 9.21397 8.75621 9.21969 8.73941V8.73581C9.46197 8.55821 9.73969 8.41421 9.95683 7.93541C10.0208 7.75181 10.0414 7.64141 9.9774 7.35941C9.95226 7.25141 9.92026 7.16741 9.85169 7.09061H9.85397C9.89512 7.07021 10.0025 7.15301 10.0197 7.10261C9.9934 6.96581 9.9054 6.78461 9.80826 6.69101C9.7214 6.60701 9.6254 6.59861 9.54769 6.67421C9.45855 6.72701 9.44026 6.91421 9.48254 7.07741C9.53054 7.19981 9.65969 7.22141 9.75112 7.46981C9.7534 7.48661 9.78197 7.65581 9.73626 7.72541C9.6974 7.84781 9.21626 8.24621 9.18197 8.27021L9.17854 8.27261L9.17626 8.27501H9.17397H9.17169V8.27141C9.1694 8.26181 9.17169 8.23541 9.17169 8.19581C9.16826 8.12141 9.19797 7.95221 9.19455 7.92221V7.91981C9.03454 8.02781 8.98083 8.35781 8.95226 8.45621C8.54883 8.74781 8.09169 8.96501 7.82769 9.26021C7.69054 9.48821 8.77397 9.00341 8.89969 8.94461L8.90312 8.94821C8.92826 8.97581 8.9294 9.07181 9.0014 9.15941C9.11569 9.31901 9.3534 9.41741 9.58654 9.35621C9.9774 9.20861 10.2037 8.92901 10.4323 8.61821C10.4643 8.57021 10.5157 8.52941 10.5637 8.56781C10.7203 8.93741 11.1751 9.20141 11.7614 9.22781C11.8985 9.05501 11.8334 8.96981 11.7785 8.93381C11.7614 8.92181 11.4871 8.80901 11.4437 8.69741C11.4174 8.59421 11.4825 8.50181 11.6128 8.43341C11.99 8.38541 12.3603 8.33141 12.7191 8.21021C12.7225 8.08301 12.7934 7.89461 12.8414 7.81181C12.8757 7.75541 12.8951 7.74941 12.9031 7.74221V7.73981H12.9054V7.73621V7.72421L12.8437 7.68581L11.6403 7.68101C11.6254 7.67501 11.6151 7.66901 11.6083 7.66301L11.606 7.65941C11.606 7.65941 11.6037 7.65941 11.6037 7.65701C11.6037 7.65461 11.6014 7.65461 11.6014 7.65461V7.65581V7.65341V7.65101V7.64861L11.6037 7.64501C11.6094 7.63781 11.6243 7.62941 11.6414 7.62101C11.9294 7.58141 12.4391 7.49381 12.4734 6.97901C12.4677 6.71021 12.3637 6.53501 12.0505 6.48701C11.8197 6.50501 11.6551 6.73901 11.6814 6.99581C11.67 7.06421 11.7043 7.19981 11.6357 7.21541C11.1945 7.25861 10.7123 7.54901 10.6963 7.75781H10.694H10.6917H10.6894C10.6894 7.76021 10.6871 7.76021 10.686 7.76021H10.6814H10.6791H10.6745C10.646 7.75061 10.6094 7.70021 10.6151 7.63181C10.598 7.27181 10.486 6.86381 10.3123 6.55181C10.2494 6.48581 10.2208 6.45941 10.2048 6.45581H10.2014H10.198H10.1957H10.1945ZM11.3465 6.64541C11.3237 6.65021 11.2974 6.67181 11.2894 6.70781C11.2837 6.73181 11.3008 6.77021 11.2803 6.78221C11.2688 6.79421 11.2231 6.78701 11.2254 6.72221C11.2254 6.70181 11.2105 6.67901 11.2025 6.66581C11.1934 6.65981 11.1877 6.65861 11.1728 6.65861C11.1534 6.65861 11.1523 6.66341 11.142 6.68021C11.1363 6.69701 11.1305 6.71621 11.1305 6.73421C11.1283 6.75821 11.1191 6.76541 11.1043 6.76781C11.086 6.76781 11.0905 6.77141 11.0757 6.76181C11.0665 6.75221 11.0551 6.74741 11.0551 6.73061C11.0551 6.71261 11.0517 6.68261 11.0471 6.67061C11.0391 6.66221 11.0265 6.65861 11.0128 6.65381C10.9363 6.65381 10.9328 6.74381 10.9363 6.77861C10.9305 6.78461 10.9271 6.94661 11.03 6.99221C11.1671 7.06181 11.4985 7.02101 11.4185 6.79661C11.4185 6.77621 11.4128 6.70661 11.4117 6.68861C11.3968 6.65261 11.3705 6.64061 11.3454 6.64421L11.3465 6.64541ZM15.9923 6.84581H15.9808C15.9808 6.84581 15.3385 7.32581 15.3237 7.34261C15.2597 7.40261 15.2917 7.61021 15.3237 7.58621C15.3694 7.60421 16.0151 7.14461 16.0025 7.09061C16.0311 7.09301 16.0448 6.85421 15.9911 6.84461L15.9923 6.84581ZM11.9534 6.91781C11.9785 6.91421 12.0128 6.92381 12.0448 6.94181C12.094 6.97301 12.1248 7.01621 12.1191 7.04981V7.05461C12.1168 7.05461 12.1168 7.05461 12.1168 7.05701V7.05941C12.1168 7.05941 12.1145 7.05941 12.1145 7.06181C12.1145 7.06421 12.1111 7.06661 12.1088 7.06901C12.086 7.09301 12.0334 7.08821 11.9831 7.05701C11.9351 7.02941 11.9065 6.98501 11.9088 6.95381V6.95021L11.9145 6.93821C11.9145 6.93821 11.9145 6.93581 11.9168 6.93461L11.9225 6.92741C11.9305 6.92141 11.9408 6.91541 11.9534 6.91541V6.91781ZM6.33283 7.03781C6.0014 7.04501 5.5134 7.49621 5.50083 7.74581L6.55226 7.21781C6.49512 7.12661 6.54883 7.04501 6.33283 7.03781ZM7.41055 7.19381C7.44255 7.19621 7.47683 7.21301 7.49512 7.26101C7.51112 7.30541 7.49512 7.35101 7.47569 7.37381V7.37741C7.45969 7.39661 7.41169 7.38941 7.37626 7.38941C7.33397 7.38701 7.3134 7.37981 7.28826 7.34381C7.27454 7.30181 7.31112 7.26221 7.32826 7.23341L7.33626 7.22141C7.34769 7.20941 7.37054 7.19981 7.3934 7.19741L7.40826 7.19501L7.41055 7.19381ZM15.8677 7.33421C15.8071 7.34141 15.7511 7.40021 15.7763 7.49381C15.7603 7.54901 15.8563 7.74221 15.8825 7.84421C15.9054 7.91621 15.8528 8.12381 15.8997 8.14421C15.9431 8.16821 16.0563 8.02421 16.0528 7.83941C16.0643 7.74341 16.0208 7.39541 15.9077 7.33781C15.894 7.33421 15.8803 7.33301 15.8665 7.33421H15.8677ZM8.68597 7.67501C8.6334 7.67861 8.58654 7.70741 8.60826 7.78541C8.60483 7.84061 8.75683 7.90901 8.76483 8.03741C8.7854 8.09261 8.73054 8.26541 8.77626 8.27981C8.8174 8.29781 8.87454 8.15981 8.89626 8.03501C8.90769 7.96541 8.84369 7.72301 8.73626 7.67861C8.71912 7.67381 8.70197 7.67261 8.68483 7.67381L8.68597 7.67501ZM10.8345 7.98221H10.8483C10.9831 8.02061 11.1797 8.02541 11.3511 8.04221C11.4917 8.05421 11.5603 8.16701 11.4311 8.21621C11.3008 8.26181 11.1763 8.30021 11.1763 8.49461C11.1923 8.59061 11.1877 8.64101 11.174 8.66261C11.174 8.66621 11.1705 8.66861 11.1694 8.66981C11.1694 8.66981 11.1694 8.67221 11.1671 8.67221V8.67461H11.1637L11.1557 8.67821H11.15C11.1191 8.68421 11.0745 8.65421 11.0414 8.63501C10.9614 8.57501 10.7385 8.43101 10.7065 8.11901C10.702 8.04701 10.7523 7.98701 10.8323 7.98101L10.8345 7.98221ZM5.58426 8.22221C5.57626 8.22221 5.5614 8.24861 5.53855 8.27861C5.33969 8.60861 5.3214 9.10181 5.43112 9.25061C5.48826 9.31901 5.58426 9.35021 5.65512 9.32861C5.78083 9.27221 5.83455 9.00701 5.80369 8.91101C5.76369 8.84261 5.73055 8.83181 5.6894 8.88941C5.6014 9.07541 5.56369 8.94701 5.55797 8.84141C5.54426 8.64581 5.56255 8.46341 5.58312 8.31941C5.59455 8.24741 5.59455 8.21981 5.58312 8.21981L5.58426 8.22221ZM12.3237 8.65661C12.3088 8.65661 12.294 8.65901 12.278 8.66861C12.2745 8.66861 12.1363 8.76461 12.0917 8.83421C12.0643 8.85581 12.0688 8.87381 12.0757 8.91221C12.0963 8.96381 12.1328 8.94821 12.1763 8.92421C12.2334 8.91461 12.2597 8.95421 12.2563 9.02501C12.23 9.11501 12.2677 9.14741 12.2677 9.15341C12.2677 9.15821 12.3214 9.20741 12.3854 9.16901C12.5191 9.11501 12.6025 9.06101 12.7911 9.01901C12.8403 9.01901 12.8368 8.87981 12.7591 8.87501C12.6563 8.87981 12.5648 8.88701 12.462 8.97101C12.3991 8.98541 12.3888 8.94461 12.374 8.90861C12.358 8.81981 12.4105 8.75741 12.3991 8.69021C12.4014 8.69381 12.3671 8.66141 12.3225 8.65901L12.3237 8.65661ZM16.6391 8.82461L16.5477 8.83421C16.5065 8.84261 16.4928 8.86181 16.4848 8.91461C16.4883 8.99261 16.534 8.98901 16.582 9.02021C16.6094 9.05621 16.6277 9.08981 16.5797 9.15221C16.534 9.19421 16.5031 9.21821 16.4574 9.26021C16.438 9.29861 16.4231 9.35621 16.4894 9.37541C16.6094 9.41141 16.8871 9.22181 16.8871 9.21941C16.9328 9.18341 16.9168 9.11501 16.9134 9.11501C16.886 9.08381 16.8265 9.10301 16.7877 9.09701C16.7683 9.09701 16.7077 9.08741 16.7351 9.02981C16.7603 8.99381 16.7694 8.97341 16.7865 8.92901C16.8037 8.88581 16.7865 8.85701 16.7203 8.83301C16.686 8.82581 16.6631 8.82341 16.6368 8.82461H16.6391ZM14.9785 13.4566C15.2871 13.4722 15.5751 13.4602 15.8814 13.4758C15.9317 13.519 15.9077 13.6198 15.8757 13.6366L15.87 13.639H15.8665H15.862L15.6037 13.6318V13.6162C15.5785 13.5418 15.4071 13.5466 15.366 13.6042V13.6078C15.3637 13.6078 15.3625 13.6114 15.3625 13.6126L15.3603 13.6186V13.633C15.2231 13.651 15.1031 13.6282 14.9683 13.6234C14.9283 13.5718 14.934 13.4794 14.9797 13.4554L14.9785 13.4566Z" fill="white"/>
</svg>
