<svg width="240" height="163" viewBox="0 0 240 163" fill="none" xmlns="http://www.w3.org/2000/svg">
<path d="M235.865 131.457C232.348 132.934 228.678 131.316 227.139 127.61C225.576 123.848 227.036 120.029 230.609 118.529C234.183 117.029 237.787 118.651 239.375 122.474C240.939 126.239 239.495 129.933 235.865 131.457ZM229.127 111.124L226.331 112.298C225.633 112.588 224.851 112.603 224.142 112.342C223.432 112.08 222.846 111.56 222.5 110.885L222.361 110.613C219.352 105.158 219.008 98.5276 221.343 90.9171C223.506 84.0901 224.404 79.2887 222.597 74.9388C220.509 69.9096 216.048 68.3342 210.36 70.6164C208.154 71.5425 207.452 71.5277 205.716 73.2592C205.338 73.6404 204.888 73.9413 204.392 74.1438C203.896 74.3464 203.365 74.4465 202.83 74.4381C202.312 74.432 201.802 74.3212 201.328 74.1124C200.854 73.9035 200.427 73.6009 200.072 73.2225C199.388 72.4934 199.005 71.5305 199 70.5284C198.995 69.5262 199.368 68.5595 200.045 67.8234C202.963 64.7524 206.483 62.3228 210.382 60.688C222.603 55.5575 228.756 63.132 231.571 69.9104C234.325 76.5404 232.776 82.692 230.287 90.6589C228.201 97.2789 228.323 102.184 230.692 107.062C230.863 107.43 230.958 107.83 230.972 108.237C230.985 108.643 230.917 109.049 230.771 109.428C230.625 109.807 230.404 110.153 230.121 110.445C229.839 110.736 229.501 110.967 229.127 111.124Z" fill="#15B68F" fill-opacity="0.8"/>
<path d="M28.8106 42.6032C42.8956 17.8386 69.7631 -1.17658 98.2046 0.655235C77.2253 23.4577 64.9918 52.9422 63.6687 83.892C63.2016 95.8299 63.9259 109.156 55.9955 118.095C51.0611 123.657 43.5187 126.351 36.103 126.916C28.6868 127.481 21.2724 126.142 13.9554 124.809L12.1805 125.353C11.5048 96.8747 14.7255 67.3678 28.8106 42.6032Z" fill="#F0F0F0"/>
<path d="M98.247 1.25161C77.2149 11.3714 59.2812 28.2725 48.2722 48.8846C45.8921 53.341 43.8657 58.0686 42.9817 63.0672C42.0974 68.068 42.7151 72.8283 44.424 77.5781C45.9863 81.9202 48.0875 86.181 48.5665 90.8272C49.0715 95.7245 47.2687 100.304 44.0235 103.938C40.0529 108.384 34.7206 111.14 29.4123 113.653C23.5185 116.444 17.3525 119.249 13.178 124.457C12.6722 125.088 11.7221 124.267 12.2271 123.637C19.49 114.575 31.9222 112.872 40.5433 105.572C44.566 102.166 47.5862 97.5277 47.3956 92.0927C47.2289 87.34 45.0659 82.9444 43.446 78.5615C41.7451 73.9594 40.8969 69.3321 41.5068 64.4255C42.1308 59.4064 43.9766 54.5896 46.2323 50.092C51.3194 39.9489 58.2813 30.6367 66.2565 22.5869C75.4224 13.3339 86.1043 5.71631 97.8402 0.0635622C98.5667 -0.286008 98.9688 0.904324 98.247 1.25161Z" fill="white"/>
<path d="M51.497 41.9961C48.2727 39.6397 45.9914 36.2145 45.0606 32.3322C44.1298 28.4498 44.61 24.3632 46.4155 20.8021C46.7833 20.0828 47.9188 20.6202 47.5506 21.3405C45.8632 24.6535 45.4162 28.4603 46.2904 32.0737C47.1646 35.6872 49.3023 38.8693 52.3177 41.0457C52.9725 41.5195 52.1479 42.4672 51.497 41.9961Z" fill="white"/>
<path d="M43.3417 75.4807C51.421 74.3008 58.7585 70.1205 63.8912 63.7736C64.3992 63.1443 65.3494 63.9654 64.842 64.5939C59.4886 71.1888 51.8439 75.5234 43.4337 76.7328C42.632 76.8475 42.5443 75.5948 43.3417 75.4807Z" fill="white"/>
<path d="M76.043 14.8788C77.1004 16.0504 78.4325 16.9411 79.9194 17.471C81.4064 18.0008 83.0018 18.1533 84.5624 17.9146C85.3622 17.7898 85.449 19.0427 84.6543 19.1667C82.929 19.4224 81.1673 19.2519 79.5231 18.6701C77.8789 18.0883 76.4022 17.1129 75.2222 15.8292C75.1008 15.7175 75.0265 15.5638 75.0144 15.3994C75.0024 15.2349 75.0534 15.072 75.1571 14.9438C75.2664 14.8185 75.4208 14.7414 75.5867 14.7292C75.7525 14.7171 75.9165 14.7708 76.043 14.8788Z" fill="white"/>
<path d="M154.795 78.7788C154.297 78.871 153.8 78.9631 153.298 79.0648C146.62 80.3381 140.056 82.1517 133.672 84.4874C133.175 84.6602 132.675 84.8427 132.184 85.0294C116.862 90.8206 102.75 99.4047 90.5632 110.345C85.718 114.703 81.2114 119.423 77.0826 124.465C71.381 131.427 65.7532 139.43 58.3026 143.97C57.5306 144.452 56.7295 144.886 55.9038 145.269L12.9829 127.475C12.9057 127.386 12.8239 127.306 12.7462 127.217L11 126.585C11.1948 126.31 11.4027 126.029 11.5975 125.754C11.7098 125.594 11.8316 125.438 11.944 125.278C12.0219 125.173 12.1003 125.068 12.1646 124.968C12.1904 124.933 12.2167 124.898 12.2384 124.873C12.3027 124.773 12.373 124.687 12.4332 124.598C13.5911 123.024 14.762 121.456 15.946 119.894C15.9501 119.884 15.9501 119.884 15.9638 119.878C25.0159 107.995 35.1401 96.7632 46.6481 87.4242C46.9944 87.1433 47.3443 86.8525 47.7102 86.5797C52.9209 82.3989 58.4647 78.6507 64.2863 75.3726C67.4798 73.5879 70.7616 71.9658 74.1192 70.5128C82.8019 66.775 92.0189 64.4255 101.432 63.5504C120.198 61.8088 139.311 66.085 153.704 77.8678C154.072 78.1695 154.431 78.4673 154.795 78.7788Z" fill="#F0F0F0"/>
<path d="M154.472 79.283C131.583 74.7067 107.084 77.4093 85.8772 87.2422C81.2925 89.368 76.8267 91.9233 73.1099 95.3825C69.3914 98.8432 67.0171 103.016 65.5205 107.837C64.1523 112.244 63.2634 116.91 60.8472 120.908C58.3003 125.122 54.1026 127.693 49.3223 128.642C43.4735 129.803 37.5562 128.794 31.8039 127.607C25.417 126.288 18.8039 124.818 12.3334 126.464C11.5494 126.664 11.2856 125.436 12.0684 125.237C23.3259 122.372 34.2784 128.494 45.559 127.853C50.8227 127.554 56.0282 125.668 59.1499 121.214C61.8797 117.319 62.8005 112.508 64.1472 108.033C65.5613 103.335 67.6714 99.1301 71.1141 95.5796C74.6357 91.9476 79.0109 89.2124 83.5212 86.9787C93.6929 81.9412 104.861 78.6954 116.078 77.0673C128.97 75.195 142.088 75.5408 154.863 78.0896C155.654 78.2477 155.258 79.44 154.472 79.283Z" fill="white"/>
<path d="M92.6014 83.6827C91.4465 79.861 91.6883 75.7534 93.2837 72.0934C94.8791 68.4335 97.7242 65.4595 101.311 63.7026C102.038 63.3496 102.621 64.4621 101.893 64.8156C98.5499 66.4454 95.9 69.2159 94.4213 72.6271C92.9426 76.0383 92.7327 79.8655 93.8293 83.4178C94.0667 84.1901 92.8375 84.4505 92.6014 83.6827Z" fill="white"/>
<path d="M65.9198 105.511C73.0814 109.43 81.4581 110.508 89.3795 108.529C90.1641 108.332 90.4283 109.56 89.6445 109.756C81.3975 111.801 72.6826 110.661 65.239 106.566C64.5298 106.175 65.2144 105.122 65.9198 105.511Z" fill="white"/>
<path d="M128.535 76.8018C128.673 78.3736 129.2 79.8864 130.069 81.2043C130.937 82.5221 132.119 83.6039 133.508 84.3524C134.222 84.734 133.537 85.7867 132.828 85.4075C131.296 84.5734 129.992 83.3771 129.03 81.9232C128.067 80.4692 127.476 78.8019 127.307 77.0667C127.277 76.9045 127.311 76.7371 127.4 76.5985C127.489 76.46 127.628 76.3606 127.788 76.3207C127.951 76.2864 128.121 76.3177 128.261 76.4078C128.4 76.4979 128.499 76.6395 128.535 76.8018Z" fill="white"/>
<path d="M26.5179 99C20.2805 99 14.2987 101.477 9.88822 105.885C5.47776 110.293 3 116.272 3 122.506C3 128.74 5.47776 134.719 9.88822 139.127C14.2987 143.535 20.2805 146.012 26.5179 146.012H201.782C208.019 146.012 214.001 143.535 218.412 139.127C222.822 134.719 225.3 128.74 225.3 122.506C225.3 116.272 222.822 110.293 218.412 105.885C214.001 101.477 208.019 99 201.782 99H26.5179Z" fill="#E5E5E5"/>
<path d="M26.5178 103.757C21.5428 103.757 16.7716 105.733 13.2537 109.249C9.73583 112.765 7.75952 117.534 7.75952 122.506C7.75952 127.479 9.73583 132.247 13.2537 135.764C16.7716 139.28 21.5428 141.255 26.5178 141.255H201.782C206.757 141.255 211.528 139.28 215.046 135.764C218.564 132.247 220.54 127.479 220.54 122.506C220.54 117.534 218.564 112.765 215.046 109.249C211.528 105.733 206.757 103.757 201.782 103.757H26.5178Z" fill="white"/>
<path d="M65.2313 133.717H30.3603C30.2495 133.718 30.1397 133.696 30.0371 133.655C29.9346 133.613 29.8413 133.551 29.7627 133.473C29.6841 133.395 29.6217 133.302 29.5791 133.2C29.5366 133.098 29.5146 132.988 29.5146 132.877C29.5146 132.767 29.5366 132.657 29.5791 132.555C29.6217 132.453 29.6841 132.36 29.7627 132.282C29.8413 132.204 29.9346 132.142 30.0371 132.1C30.1397 132.058 30.2495 132.037 30.3603 132.038H65.2313C65.4531 132.039 65.6653 132.128 65.8216 132.286C65.9779 132.443 66.0656 132.656 66.0656 132.877C66.0656 133.099 65.9779 133.312 65.8216 133.469C65.6653 133.626 65.4531 133.715 65.2313 133.717Z" fill="#15B68F" fill-opacity="0.8"/>
<path d="M109.467 133.997H74.5964C74.4856 133.997 74.3758 133.976 74.2732 133.934C74.1706 133.893 74.0774 133.831 73.9988 133.753C73.9202 133.675 73.8578 133.582 73.8152 133.48C73.7726 133.378 73.7507 133.268 73.7507 133.157C73.7507 133.046 73.7726 132.937 73.8152 132.835C73.8578 132.732 73.9202 132.64 73.9988 132.561C74.0774 132.483 74.1706 132.422 74.2732 132.38C74.3758 132.338 74.4856 132.317 74.5964 132.318H109.467C109.578 132.317 109.688 132.338 109.791 132.38C109.893 132.422 109.986 132.483 110.065 132.561C110.144 132.64 110.206 132.732 110.249 132.835C110.291 132.937 110.313 133.046 110.313 133.157C110.313 133.268 110.291 133.378 110.249 133.48C110.206 133.582 110.144 133.675 110.065 133.753C109.986 133.831 109.893 133.893 109.791 133.934C109.688 133.976 109.578 133.997 109.467 133.997Z" fill="#15B68F" fill-opacity="0.8"/>
<path d="M153.703 134.276H118.832C118.611 134.275 118.398 134.186 118.242 134.029C118.086 133.871 117.998 133.659 117.998 133.437C117.998 133.215 118.086 133.003 118.242 132.845C118.398 132.688 118.611 132.599 118.832 132.597H153.703C153.814 132.597 153.924 132.618 154.026 132.66C154.129 132.702 154.222 132.763 154.301 132.841C154.38 132.919 154.442 133.012 154.484 133.114C154.527 133.217 154.549 133.326 154.549 133.437C154.549 133.548 154.527 133.657 154.484 133.76C154.442 133.862 154.38 133.955 154.301 134.033C154.222 134.111 154.129 134.172 154.026 134.214C153.924 134.256 153.814 134.277 153.703 134.276Z" fill="#15B68F" fill-opacity="0.8"/>
<path d="M197.939 134.556H163.068C162.847 134.555 162.634 134.466 162.478 134.308C162.322 134.151 162.234 133.938 162.234 133.717C162.234 133.495 162.322 133.282 162.478 133.125C162.634 132.968 162.847 132.879 163.068 132.877H197.939C198.161 132.879 198.373 132.968 198.53 133.125C198.686 133.282 198.774 133.495 198.774 133.717C198.774 133.938 198.686 134.151 198.53 134.308C198.373 134.466 198.161 134.555 197.939 134.556Z" fill="#15B68F" fill-opacity="0.8"/>
<path d="M46.7208 123.995C49.7489 123.995 52.2036 121.542 52.2036 118.515C52.2036 115.489 49.7489 113.035 46.7208 113.035C43.6928 113.035 41.238 115.489 41.238 118.515C41.238 121.542 43.6928 123.995 46.7208 123.995Z" fill="#15B68F" fill-opacity="0.8"/>
<path d="M91.224 123.995C94.252 123.995 96.7068 121.542 96.7068 118.515C96.7068 115.489 94.252 113.035 91.224 113.035C88.1959 113.035 85.7412 115.489 85.7412 118.515C85.7412 121.542 88.1959 123.995 91.224 123.995Z" fill="#15B68F" fill-opacity="0.8"/>
<path d="M135.727 123.995C138.755 123.995 141.21 121.542 141.21 118.515C141.21 115.489 138.755 113.035 135.727 113.035C132.699 113.035 130.244 115.489 130.244 118.515C130.244 121.542 132.699 123.995 135.727 123.995Z" fill="#15B68F" fill-opacity="0.8"/>
<path d="M5.48277 162.96C8.51082 162.96 10.9655 160.507 10.9655 157.48C10.9655 154.453 8.51082 152 5.48277 152C2.45472 152 0 154.453 0 157.48C0 160.507 2.45472 162.96 5.48277 162.96Z" fill="#15B68F" fill-opacity="0.8"/>
<path d="M28.4828 36.96C31.5108 36.96 33.9655 34.5065 33.9655 31.48C33.9655 28.4535 31.5108 26 28.4828 26C25.4547 26 23 28.4535 23 31.48C23 34.5065 25.4547 36.96 28.4828 36.96Z" fill="#15B68F" fill-opacity="0.8"/>
<path d="M180.23 123.995C183.258 123.995 185.713 121.542 185.713 118.515C185.713 115.489 183.258 113.035 180.23 113.035C177.202 113.035 174.748 115.489 174.748 118.515C174.748 121.542 177.202 123.995 180.23 123.995Z" fill="#15B68F" fill-opacity="0.8"/>
</svg>
